<svg width="150" height="48" viewBox="0 0 150 48" fill="none" xmlns="http://www.w3.org/2000/svg">
<g clip-path="url(#clip0_17_3142)">
<path d="M54.4395 0H0L27.2197 47.1478L54.4395 0ZM39.1307 24.628L27.691 44.4444V31.2314L39.1307 24.628ZM40.8916 21.5774V8.36434L52.3313 1.76091L40.8916 21.5774ZM51.8601 0.94246L40.4204 7.54588L29.0489 0.979663L28.9807 0.94246H51.8663H51.8601ZM25.4588 0.94246L25.3906 0.979663L14.0191 7.54588L2.57316 0.94246H25.4588ZM2.10193 1.76091L13.5479 8.36434V21.5774L2.10193 1.76091ZM14.4903 8.36434L26.7485 1.28968V15.4452L14.4903 22.5198V8.36434ZM27.691 1.28968L39.9492 8.36434V22.5198L27.691 15.4452V1.28968ZM27.2197 16.2636L39.4779 23.3383L27.2197 30.4129L14.9616 23.3383L27.2197 16.2636ZM15.3088 24.628L26.7485 31.2314V44.4444L15.3088 24.628Z" fill="#40AD1C"/>
<path d="M64.7507 20.3249C63.7463 20.3249 62.8472 20.1513 62.0536 19.8103C61.2599 19.4692 60.5965 18.9794 60.057 18.3408C59.5176 17.7021 59.1022 16.9271 58.817 16.0218C58.5317 15.1166 58.3829 14.1059 58.3829 12.9898C58.3829 11.8738 58.5255 10.8631 58.817 9.95783C59.1022 9.05257 59.5176 8.27752 60.057 7.63888C60.5965 7.00024 61.2599 6.51041 62.0536 6.16939C62.8472 5.82837 63.7463 5.65475 64.7507 5.65475C66.152 5.65475 67.3053 5.97098 68.2044 6.59722C69.1034 7.22966 69.7607 8.06051 70.1699 9.10838L67.7455 10.243C67.5471 9.59821 67.1999 9.07737 66.7101 8.69295C66.214 8.30852 65.563 8.11011 64.7569 8.11011C63.6781 8.11011 62.8658 8.44493 62.314 9.12078C61.7683 9.79042 61.4893 10.6647 61.4893 11.7435V14.2423C61.4893 15.3212 61.7621 16.1892 62.314 16.8651C62.8596 17.5347 63.6781 17.8757 64.7569 17.8757C65.6188 17.8757 66.307 17.6649 66.8217 17.2433C67.3363 16.8217 67.7455 16.2574 68.0494 15.5568L70.2877 16.7411C69.8227 17.8943 69.1158 18.781 68.1858 19.401C67.2495 20.0211 66.1086 20.3311 64.7631 20.3311L64.7507 20.3249Z" fill="white"/>
<path d="M77.0771 20.3249C76.1036 20.3249 75.2232 20.1513 74.4233 19.8103C73.6235 19.4692 72.9414 18.9794 72.3896 18.3408C71.8316 17.7021 71.3975 16.9271 71.0937 16.0218C70.7899 15.1166 70.6349 14.1059 70.6349 12.9898C70.6349 11.8738 70.7899 10.8631 71.0937 9.95783C71.3975 9.05257 71.8316 8.27752 72.3896 7.63888C72.9476 7.00024 73.6235 6.51041 74.4233 6.16939C75.2232 5.82837 76.1098 5.65475 77.0771 5.65475C78.0444 5.65475 78.931 5.82837 79.7309 6.16939C80.5307 6.51041 81.2066 7.00024 81.7646 7.63888C82.3226 8.27752 82.7505 9.05257 83.0605 9.95783C83.3643 10.8631 83.5193 11.88 83.5193 12.9898C83.5193 14.0997 83.3643 15.1166 83.0605 16.0218C82.7567 16.9271 82.3226 17.7021 81.7646 18.3408C81.2066 18.9794 80.5307 19.4692 79.7309 19.8103C78.931 20.1513 78.0444 20.3249 77.0771 20.3249ZM77.0771 17.8695C78.0816 17.8695 78.8938 17.5595 79.5015 16.9457C80.1153 16.3318 80.4191 15.4018 80.4191 14.1679V11.8055C80.4191 10.5717 80.1153 9.64781 79.5015 9.02777C78.8876 8.41393 78.0816 8.10391 77.0771 8.10391C76.0726 8.10391 75.2604 8.41393 74.6527 9.02777C74.0389 9.64781 73.7351 10.5717 73.7351 11.8055V14.1679C73.7351 15.4018 74.0389 16.3256 74.6527 16.9457C75.2666 17.5657 76.0726 17.8695 77.0771 17.8695Z" fill="white"/>
<path d="M85.4353 20.0025V5.97718H88.3743V8.29612H88.5107C88.8145 7.53968 89.2796 6.91344 89.8996 6.4112C90.5196 5.90897 91.3691 5.65475 92.448 5.65475C93.8865 5.65475 95.0025 6.12598 95.8086 7.06844C96.6084 8.0109 97.0115 9.35639 97.0115 11.0987V19.9963H94.0725V11.4769C94.0725 9.28199 93.192 8.18452 91.4311 8.18452C91.0529 8.18452 90.6808 8.23412 90.3088 8.33333C89.943 8.43253 89.6144 8.58134 89.323 8.77975C89.0377 8.97817 88.8083 9.23238 88.6347 9.5362C88.4611 9.84002 88.3805 10.1996 88.3805 10.6151V20.0025H85.4415H85.4353Z" fill="white"/>
<path d="M108.55 17.6835H108.414C108.11 18.5082 107.608 19.1592 106.92 19.6242C106.225 20.0893 105.413 20.3249 104.477 20.3249C102.697 20.3249 101.321 19.6801 100.353 18.3966C99.38 17.1131 98.8964 15.3088 98.8964 12.9898C98.8964 10.6709 99.38 8.86656 100.353 7.58308C101.327 6.2996 102.697 5.65475 104.477 5.65475C105.413 5.65475 106.225 5.88417 106.92 6.343C107.614 6.80183 108.11 7.45287 108.414 8.29612H108.55V5.97718H111.489V25.3968H108.55V17.6835ZM105.37 17.7889C106.269 17.7889 107.025 17.5719 107.633 17.1255C108.247 16.6853 108.55 16.1024 108.55 15.3832V10.5841C108.55 9.86482 108.247 9.28819 107.633 8.84176C107.019 8.40153 106.269 8.17832 105.37 8.17832C104.347 8.17832 103.528 8.50694 102.914 9.16418C102.3 9.82142 101.997 10.6895 101.997 11.7683V14.1927C101.997 15.2716 102.3 16.1396 102.914 16.7969C103.528 17.4541 104.347 17.7827 105.37 17.7827V17.7889Z" fill="white"/>
<path d="M122.842 17.6835H122.737C122.613 18.0245 122.445 18.3594 122.241 18.6818C122.036 19.0042 121.776 19.2894 121.46 19.5312C121.143 19.7731 120.765 19.9653 120.325 20.1141C119.885 20.2567 119.376 20.3311 118.8 20.3311C117.343 20.3311 116.214 19.8661 115.414 18.9298C114.614 17.9935 114.211 16.6543 114.211 14.9119V5.97717H117.15V14.5275C117.15 16.7039 118.049 17.7889 119.847 17.7889C120.226 17.7889 120.592 17.7393 120.951 17.6401C121.311 17.5409 121.627 17.3921 121.906 17.1937C122.185 16.9953 122.408 16.7473 122.582 16.4372C122.755 16.1334 122.836 15.7738 122.836 15.3584V5.97717H125.775V20.0025H122.836V17.6835H122.842Z" fill="white"/>
<path d="M134.139 20.3249C133.135 20.3249 132.236 20.1513 131.442 19.8103C130.649 19.4692 129.979 18.9794 129.421 18.3408C128.863 17.7021 128.435 16.9271 128.137 16.0218C127.84 15.1166 127.691 14.1059 127.691 12.9898C127.691 11.8738 127.84 10.8631 128.137 9.95783C128.435 9.05257 128.863 8.27752 129.421 7.63888C129.979 7.00024 130.655 6.51041 131.442 6.16939C132.236 5.82837 133.129 5.65475 134.139 5.65475C135.15 5.65475 136.068 5.83457 136.849 6.19419C137.63 6.55381 138.281 7.05604 138.802 7.68848C139.323 8.32713 139.713 9.07117 139.974 9.91443C140.234 10.7577 140.365 11.6691 140.365 12.6364V13.7401H130.735V14.1927C130.735 15.2654 131.052 16.1458 131.69 16.8341C132.329 17.5223 133.24 17.8633 134.425 17.8633C135.286 17.8633 136.018 17.6773 136.607 17.2991C137.202 16.9271 137.705 16.4124 138.12 15.7738L139.844 17.4789C139.323 18.347 138.566 19.0352 137.581 19.5498C136.588 20.0645 135.441 20.3187 134.127 20.3187L134.139 20.3249ZM134.139 7.9489C133.637 7.9489 133.172 8.04191 132.75 8.22172C132.329 8.40153 131.969 8.65575 131.672 8.97817C131.374 9.30059 131.145 9.69121 130.983 10.1376C130.822 10.5903 130.742 11.0801 130.742 11.6195V11.8055H137.271V11.5327C137.271 10.4539 136.992 9.58581 136.433 8.92856C135.875 8.27132 135.113 7.9427 134.139 7.9427V7.9489Z" fill="white"/>
<path d="M142.287 20.0025V5.97717H145.226V8.67435H145.362C145.561 7.9551 145.976 7.32886 146.602 6.78942C147.228 6.24999 148.103 5.97717 149.219 5.97717H150V8.81075H148.841C147.669 8.81075 146.776 8.99677 146.156 9.37499C145.536 9.75321 145.226 10.3112 145.226 11.0491V20.0025H142.287Z" fill="white"/>
<path d="M59.3315 27.5546H62.2705V29.8735H62.4069C62.7108 29.0303 63.213 28.3792 63.9012 27.9204C64.5957 27.4616 65.4079 27.2321 66.3442 27.2321C68.1237 27.2321 69.5002 27.877 70.4675 29.1605C71.4409 30.444 71.9245 32.2483 71.9245 34.5672C71.9245 36.8862 71.4409 38.6905 70.4675 39.974C69.494 41.2574 68.1237 41.9023 66.3442 41.9023C65.4079 41.9023 64.5957 41.6667 63.9012 41.2016C63.2068 40.7366 62.7108 40.0856 62.4069 39.2609H62.2705V46.9742H59.3315V27.5546ZM65.4513 39.3663C66.4744 39.3663 67.2928 39.0377 67.9067 38.3805C68.5205 37.7232 68.8243 36.8552 68.8243 35.7763V33.3519C68.8243 32.2731 68.5205 31.405 67.9067 30.7478C67.2928 30.0905 66.4744 29.7619 65.4513 29.7619C64.5523 29.7619 63.7958 29.9851 63.1882 30.4254C62.5744 30.8656 62.2705 31.4484 62.2705 32.1677V36.9668C62.2705 37.686 62.5744 38.2689 63.1882 38.7091C63.802 39.1493 64.5523 39.3725 65.4513 39.3725V39.3663Z" fill="white"/>
<path d="M76.9407 41.5736C75.9362 41.5736 75.186 41.3194 74.69 40.8048C74.1939 40.2902 73.9459 39.5771 73.9459 38.6595V21.6146H76.8849V39.1741H78.8256V41.5736H76.9407Z" fill="white"/>
<path d="M88.7773 39.2547H88.6719C88.5479 39.5957 88.3805 39.9305 88.1759 40.253C87.9713 40.5754 87.7108 40.8606 87.3946 41.1024C87.0784 41.3442 86.7002 41.5364 86.26 41.6852C85.8197 41.8279 85.3113 41.9023 84.7347 41.9023C83.2776 41.9023 82.1491 41.4372 81.3492 40.501C80.5494 39.5647 80.1464 38.2254 80.1464 36.4831V27.5545H83.0854V36.1049C83.0854 38.2812 83.9844 39.3663 85.7825 39.3663C86.1608 39.3663 86.5266 39.3167 86.8862 39.2175C87.2458 39.1183 87.562 38.9695 87.8411 38.7711C88.1201 38.5726 88.3433 38.3246 88.5169 38.0146C88.6905 37.7108 88.7711 37.3512 88.7711 36.9357V27.5483H91.7101V41.5736H88.7711V39.2547H88.7773Z" fill="white"/>
<path d="M99.0266 41.9023C97.6935 41.9023 96.5836 41.6667 95.6846 41.2016C94.7855 40.7366 94.0043 40.0856 93.3408 39.2609L95.2257 37.5372C95.7466 38.1696 96.3294 38.6595 96.9681 39.0067C97.6067 39.3601 98.3445 39.5337 99.194 39.5337C100.043 39.5337 100.701 39.3663 101.122 39.0377C101.544 38.7029 101.755 38.244 101.755 37.6488C101.755 37.2024 101.606 36.818 101.308 36.5017C101.011 36.1855 100.496 35.9871 99.7582 35.8941L98.4624 35.7329C97.0239 35.5531 95.8954 35.1376 95.0769 34.4804C94.2585 33.8232 93.8493 32.8497 93.8493 31.5538C93.8493 30.8718 93.9733 30.2641 94.2275 29.7309C94.4817 29.1977 94.8351 28.7512 95.294 28.3854C95.7528 28.0196 96.2984 27.7344 96.9371 27.536C97.5757 27.3375 98.2825 27.2383 99.0514 27.2383C100.31 27.2383 101.339 27.4368 102.139 27.8336C102.939 28.2304 103.652 28.776 104.285 29.4767L102.48 31.2004C102.121 30.7664 101.649 30.3943 101.067 30.0781C100.484 29.7619 99.814 29.6069 99.0576 29.6069C98.2515 29.6069 97.6501 29.7681 97.2657 30.0905C96.8812 30.4129 96.6828 30.8346 96.6828 31.3554C96.6828 31.8762 96.8564 32.2979 97.1975 32.5707C97.5385 32.8373 98.0903 33.0357 98.8406 33.1659L100.136 33.3271C101.68 33.5627 102.809 34.0154 103.522 34.6912C104.235 35.3671 104.588 36.2661 104.588 37.4008C104.588 38.0828 104.458 38.7029 104.198 39.2485C103.937 39.7941 103.565 40.2716 103.075 40.6622C102.592 41.059 102.003 41.3628 101.321 41.5799C100.639 41.7969 99.876 41.9023 99.0266 41.9023Z" fill="white"/>
</g>
<defs>
<clipPath id="clip0_17_3142">
<rect width="150" height="47.1478" fill="white"/>
</clipPath>
</defs>
</svg>
